PathFileType	4	(X/Y/Z)	C:\Users\u0088756\Documents\PostDoc\Conferences\Amsterdam_2018\Resources\Resources\MoCap\subject01_walk1_m.trc
DataRate	CameraRate	NumFrames	NumMarkers	Units	OrigDataRate	OrigDataStartFrame	OrigNumFrames
60.000000	60.000000	4	41	m	60.000000	57	151
Frame#	Times		R.ASIS		L.ASIS		V.Sacral		R.Thigh.Upper		R.Thigh.Front		R.Thigh.Rear		L.Thigh.Upper		L.Thigh.Front		L.Thigh.Rear		R.Shank.Upper		R.Shank.Front		R.Shank.Rear		L.Shank.Upper		L.Shank.Front		L.Shank.Rear		R.Heel		R.Midfoot.Sup		R.Midfoot.Lat		R.Toe.Tip		L.Heel		L.Midfoot.Sup		L.Midfoot.Lat		L.Toe.Tip		Sternum		R.Acromium		L.Acromium		R.Bicep		L.Bicep		R.Elbow		L.Elbow		R.Wrist.Med		R.Wrist.Lat		L.Wrist.Med		L.Wrist.Lat		R.Toe.Lat		R.Toe.Med		L.Toe.Lat		L.Toe.Med		R.Temple		L.Temple		Top.Head
			X1	Y1	Z1	X2	Y2	Z2	X3	Y3	Z3	X4	Y4	Z4	X5	Y5	Z5	X6	Y6	Z6	X7	Y7	Z7	X8	Y8	Z8	X9	Y9	Z9	X10	Y10	Z10	X11	Y11	Z11	X12	Y12	Z12	X13	Y13	Z13	X14	Y14	Z14	X15	Y15	Z15	X16	Y16	Z16	X17	Y17	Z17	X18	Y18	Z18	X19	Y19	Z19	X20	Y20	Z20	X21	Y21	Z21	X22	Y22	Z22	X23	Y23	Z23	X24	Y24	Z24	X25	Y25	Z25	X26	Y26	Z26	X27	Y27	Z27	X28	Y28	Z28	X29	Y29	Z29	X30	Y30	Z30	X31	Y31	Z31	X32	Y32	Z32	X33	Y33	Z33	X34	Y34	Z34	X35	Y35	Z35	X36	Y36	Z36	X37	Y37	Z37	X38	Y38	Z38	X39	Y39	Z39	X40	Y40	Z40	X41	Y41	Z41

57	0.933	628.25	1079.6	169.09	619.79	1071.1	-91.421	425.12	1072.6	52.941	612.47	755.51	214.41	677.1	699.52	118.62	615.23	633.17	202.64	619.2	767.27	-159.15	727.26	750.99	-116.04	650.09	660.93	-154.79	557.25	458.51	186.45	632.65	420.12	132.88	565.2	371.99	190.93	608.95	487.77	-157.28	610.46	415.37	-106.51	560.69	472.09	-157.6	471.47	70.98	96.006	617.3	78.391	70.209	604.31	62.822	176.29	759.13	49.394	119.97	293.65	293.3	-43.753	408.19	164.15	-36.486	377.21	174.23	-129.75	456.61	68.16	-74.475	648.17	1382.9	40.921	558.51	1464.5	258.84	570.48	1505.8	-158.03	571.94	1261.9	300.99	569.7	1268.9	-200.72	535.01	1156.8	330.55	510.69	1180.5	-241.31	705.28	948.02	312.19	667.71	926.91	362.04	599.96	942.29	-207.8	554.05	939.47	-268.11	691.7	38.976	195.85	704.1	47.288	85.982	398.75	110.88	-143.27	428.12	103.42	-43.94	716.39	1599.9	138.9	729.16	1609.1	-0.01934	727.51	1779.2	85.3
58	0.95	623.45	1079.4	171.8	618.75	1073.3	-88.967	423.16	1074.5	53.722	603.32	754.85	215.07	667.85	699.03	120.08	603.7	633.28	203.7	627.49	771.35	-158.39	734.04	757.39	-112.49	660.21	665.69	-153.5	541.75	458.92	186.34	616.36	419.93	133.16	549.3	372.02	190.36	625.3	489.74	-154.59	629.5	418.22	-103.93	577.8	471.9	-155.86	452.69	71.332	95.964	598.63	78.339	70.058	585.23	62.79	175.96	740.29	48.908	120	318.64	277.86	-44.073	440.34	160.87	-34.045	412.25	165.49	-128.52	496.99	64.832	-71.449	646.23	1384.4	41.92	558.01	1467.1	259.33	567.33	1507.1	-157.22	573.48	1264.4	301.99	564.18	1270.5	-200.39	537.95	1158.8	332.6	502.74	1182	-239.39	712.07	953.26	310.88	675.67	931.42	361.42	592.61	945.04	-206.4	547.6	941.27	-267.09	673.06	39.671	195.96	684.62	46.737	85.942	435.86	102.6	-140.9	465.32	97.56	-41.48	716.34	1601.7	139.12	728.05	1610.4	0.79457	727.57	1780.5	85.058
59	0.967	620.32	1079.4	173.66	617.14	1074.7	-87.617	421.03	1075.9	54.327	593.91	754.91	216.06	658.09	697.84	121.51	591.56	632.95	203.91	634.88	775.14	-157.4	739.58	763.74	-109.42	669.19	670.44	-151.2	526.89	459.27	186.95	600.67	419.25	133.74	533.67	372.58	190.78	638.68	491.64	-153.79	649.54	420.67	-101.21	594.18	470.75	-154.21	434.08	71.69	95.844	579.99	78.271	69.801	566.2	62.852	175.72	721.56	48.346	120.08	345.35	259.53	-44.229	474.82	152.96	-32.475	448.77	155.15	-127.55	539.39	60.925	-69.035	644.62	1385.4	42.664	557.34	1468.6	260.4	566.33	1507.7	-157.18	575.48	1265.7	303.62	557.68	1271.2	-199.71	540.5	1160.4	334.37	496.05	1184	-237.7	718.49	958.71	309.64	683.51	935.33	360.15	586.41	946.99	-205.63	540.72	942.5	-265.75	654.46	39.328	195.67	665.27	46.236	85.874	476.52	94.049	-139.21	504.99	90.894	-39.55	716.42	1603.3	139.16	726.48	1611.6	0.70495	726.08	1782	85.189
60	0.983	619.03	1080	175.36	617.68	1076.5	-86.166	418.76	1076.9	54.817	585.25	754.77	216.49	648.02	695.88	122.71	579.45	632.72	204.78	640.83	778.46	-156.09	745.29	769.15	-105.45	676.66	674.17	-149.92	511.14	460.2	186.56	586.1	419.41	134.09	518.69	373.22	190.58	654.02	491.51	-150.84	667.08	422.67	-99.497	609.34	468.7	-152.41	415.63	72.069	95.528	561.4	78.217	69.483	547.22	62.963	175.56	702.8	47.729	120.15	374.07	238.84	-43.971	511.52	142.61	-31.724	486.66	143.87	-127.03	583.81	57.156	-67.752	644.24	1385.8	42.814	555.53	1469.3	261.49	564.63	1507.8	-156.9	574.71	1266.5	304.73	552.46	1271.8	-199.21	542.81	1161.6	335.89	488.61	1185	-236.48	725.71	963.83	308.2	691.31	939.97	359.31	580.22	948.75	-205.06	533.58	943.67	-263.69	630.94	38.62	195.68	646.15	45.821	85.833	519.39	85.565	-138.39	547.09	84.052	-38.578	715.31	1604.1	138.8	725.78	1612.5	0.84904	724.79	1782.7	84.674
